<svg width="1063" height="355" viewBox="0 0 1063 355" fill="none" xmlns="http://www.w3.org/2000/svg">
<path d="M539.062 282.844C523.178 318.39 484.978 352.125 445.005 342.665C444.807 340.105 444.897 338.632 446.294 336.736C449.776 332.007 449.433 326.059 452.181 320.214C463.861 295.256 491.023 279.309 517.009 273.087C521.427 261.176 521.831 258.473 513.739 249.018C496.059 228.326 480.928 222.072 469.772 193.414C464.326 179.441 461.526 148.901 476.406 140.055C485.981 145.492 485.848 157.8 491.083 166.764C493.046 170.115 497.428 175.351 500.179 178.256C501.277 179.422 502.436 182.047 504.157 180.824C494.27 155.886 481.594 132.704 482.006 105.119C466.275 105.902 448.767 88.6362 442.059 75.6961C438.822 69.4521 437.717 61.3986 433.089 54.4864C428.461 47.5743 417.774 46.3488 418.271 37.1627C445.056 22.6762 479.649 43.4207 491.901 68.7005C498.473 58.4306 504.799 50.6575 514.881 43.4581C523.268 37.4681 532.987 33.8252 541.052 28.5734C545.358 25.7751 548.811 20.7529 553.731 17.7213C576.822 3.48868 605.579 7.55405 627.612 21.575C630.166 26.6453 618.694 29.4072 615.413 31.5151C600.944 40.8087 587.862 52.6324 570.13 55.161C555.229 57.2883 546.528 50.1826 539.77 37.5089C526.423 42.9429 514.975 52.1632 504.999 62.3846C507.061 64.6364 510.705 59.5059 513.342 58.4057C515.979 57.3055 525.388 55.6247 528.686 55.2878C545.835 53.5919 533.162 61.2867 528.926 70.1337C517.272 94.4482 524.599 127.486 495.225 141.771L503.067 165.193C506.869 136.726 539.045 115.874 563.294 136.003C543.288 145.02 549.536 168.39 546.671 186.342C544.238 201.545 539.974 215.743 524.757 222.86L526.897 240.489L525.861 268.991C535.664 265.954 539.282 257.1 546.258 251.034C550.42 252.38 540.596 279.4 539.062 282.844ZM453.445 336.44C462.664 330.063 473.16 325.688 482.036 318.603C492.076 310.583 497.912 298.696 507.435 290.377C511.482 286.846 516.907 285.058 520.191 280.652C517.503 278.978 515.643 280.915 513.358 281.505C490.5 287.408 470.984 301.04 458.514 321.334C457.152 323.563 450.797 334.747 453.432 336.446L453.445 336.44ZM462.527 338.492C488.846 334.891 508.792 320.711 523.892 299.336C525.098 297.619 537.116 279.161 533.573 278.193C513.087 288.122 501.676 303.86 487.332 320.42L462.521 338.479L462.527 338.492ZM498.396 225.673C486.73 202.971 479.731 178.251 473.249 153.765C465.437 178.094 475.766 203.578 492.763 221.56C494.029 222.904 496.431 226.625 498.396 225.673ZM520.897 248.735C519.605 228.382 517.147 207.057 504.745 190.18C499.559 183.118 491.422 176.709 487.073 168.87C483.443 162.315 482.01 154.42 479.858 147.343C477.367 150.847 479.638 157.268 480.611 161.212C486.738 186 496.758 211.714 507.855 234.675L520.923 248.755L520.897 248.735ZM438.072 51.1171L451.086 77.9688C452.299 80.4705 460.4 88.2067 463.167 90.246C468.626 94.2323 476.715 96.5715 483.053 98.8696L488.359 76.1759C478.218 59.6911 460.956 36.7908 438.834 42.6765C437.867 45.5875 457.821 55.5531 461.205 58.2314C468.742 64.2029 479.013 74.8824 481.58 84.2169C482.253 86.673 481.983 88.551 479.264 89.3833C468.958 74.1594 456.01 57.2559 438.059 51.1234L438.072 51.1171ZM546.973 142.312C527.406 151.634 520.067 182.446 520.83 202.409C520.929 204.917 520.956 219.089 525.823 217.183C545.55 201.249 538.976 175.304 543.565 154.736C544.626 149.984 548.072 146.648 546.954 142.305L546.973 142.312ZM550.282 135.823C549.549 132.507 548.789 133.91 547.191 133.617C529.603 130.301 512.111 148.21 509.259 164.619C507.283 175.961 512.879 184.102 515.718 194.632C520.228 170.431 522.701 144.629 550.269 135.829L550.282 135.823ZM488.76 112.279C494.33 94.035 509.987 81.2862 517.336 64.4768C496.643 72.2419 485.625 90.3927 488.76 112.279ZM493.659 135.769C517.496 122.744 512.852 93.3716 522.442 71.7073C506.153 88.6929 489.904 110.802 493.659 135.769ZM556.807 48.0635C572.701 55.1927 597.668 35.1176 610.863 27.2014L586.649 26.4015C572.766 28.294 558.217 29.3124 545.665 36.1885C544.997 38.1137 554.334 46.9653 556.794 48.0698L556.807 48.0635ZM570.659 15.9705C565.013 17.7042 556.788 22.6936 551.012 25.4933C550.789 25.6012 549.812 28.2583 550.31 29.0521C568.917 21.0855 590.927 19.4755 610.95 20.7055C611.919 17.6642 595.89 15.6307 593.724 15.4347C588.646 14.9685 574.985 14.6503 570.659 15.9705Z" fill="#64755C"/>
<path d="M646.612 121.842H613.602V185H604.03V114.293H646.612V121.842ZM659.069 134.227C662.72 134.227 666.01 134.836 668.937 136.053C671.865 137.27 674.365 138.997 676.437 141.234C678.51 143.47 680.089 146.184 681.174 149.375C682.293 152.533 682.852 156.069 682.852 159.984C682.852 163.931 682.293 167.484 681.174 170.641C680.089 173.799 678.51 176.497 676.437 178.734C674.365 180.97 671.865 182.697 668.937 183.914C666.01 185.099 662.72 185.691 659.069 185.691C655.385 185.691 652.062 185.099 649.102 183.914C646.174 182.697 643.674 180.97 641.602 178.734C639.53 176.497 637.934 173.799 636.816 170.641C635.73 167.484 635.188 163.931 635.188 159.984C635.188 156.069 635.73 152.533 636.816 149.375C637.934 146.184 639.53 143.47 641.602 141.234C643.674 138.997 646.174 137.27 649.102 136.053C652.062 134.836 655.385 134.227 659.069 134.227ZM659.069 178.832C664.003 178.832 667.687 177.188 670.122 173.898C672.556 170.576 673.773 165.954 673.773 160.033C673.773 154.079 672.556 149.441 670.122 146.119C667.687 142.796 664.003 141.135 659.069 141.135C656.569 141.135 654.382 141.563 652.507 142.418C650.664 143.273 649.118 144.507 647.868 146.119C646.651 147.73 645.73 149.72 645.105 152.089C644.513 154.424 644.217 157.072 644.217 160.033C644.217 165.954 645.434 170.576 647.868 173.898C650.335 177.188 654.069 178.832 659.069 178.832ZM735.636 135.017V185H726.804V161.612H702.824V185H693.992V135.017H702.824V154.951H726.804V135.017H735.636ZM786.456 135.017V185H777.673V163.783C773.397 164.901 769.367 165.609 765.584 165.905C761.834 166.168 758.545 165.872 755.716 165.016C752.92 164.161 750.7 162.665 749.055 160.526C747.443 158.355 746.637 155.362 746.637 151.546V135.017H755.469V150.214C755.469 152.615 755.946 154.507 756.9 155.888C757.887 157.27 759.318 158.224 761.193 158.75C763.068 159.276 765.387 159.424 768.15 159.194C770.913 158.964 774.088 158.421 777.673 157.566V135.017H786.456ZM827.474 162.5C823.428 162.632 819.974 162.961 817.112 163.487C814.283 163.98 811.964 164.638 810.155 165.461C808.379 166.283 807.079 167.253 806.257 168.372C805.467 169.49 805.073 170.74 805.073 172.122C805.073 173.438 805.287 174.572 805.714 175.526C806.142 176.48 806.717 177.27 807.441 177.895C808.198 178.487 809.069 178.931 810.056 179.227C811.076 179.49 812.162 179.622 813.313 179.622C814.859 179.622 816.273 179.474 817.556 179.178C818.839 178.849 820.04 178.388 821.158 177.796C822.31 177.204 823.395 176.497 824.415 175.674C825.467 174.852 826.487 173.915 827.474 172.862V162.5ZM799.102 142.072C801.865 139.408 804.842 137.418 808.033 136.102C811.224 134.786 814.76 134.128 818.642 134.128C821.438 134.128 823.921 134.589 826.092 135.51C828.263 136.431 830.089 137.714 831.569 139.359C833.05 141.003 834.168 142.994 834.925 145.329C835.681 147.665 836.059 150.23 836.059 153.026V185H832.161C831.306 185 830.648 184.868 830.188 184.605C829.727 184.309 829.365 183.75 829.102 182.928L828.115 178.191C826.8 179.408 825.517 180.493 824.267 181.447C823.017 182.368 821.701 183.158 820.319 183.816C818.938 184.441 817.458 184.918 815.879 185.247C814.333 185.609 812.606 185.789 810.698 185.789C808.757 185.789 806.931 185.526 805.221 185C803.51 184.441 802.013 183.618 800.731 182.533C799.481 181.447 798.477 180.082 797.721 178.438C796.997 176.76 796.635 174.786 796.635 172.516C796.635 170.543 797.178 168.651 798.264 166.842C799.349 165 801.109 163.372 803.543 161.957C805.977 160.543 809.152 159.392 813.066 158.503C816.981 157.582 821.783 157.056 827.474 156.924V153.026C827.474 149.145 826.635 146.217 824.958 144.244C823.28 142.237 820.829 141.234 817.606 141.234C815.435 141.234 813.609 141.513 812.129 142.072C810.681 142.599 809.415 143.207 808.329 143.898C807.277 144.556 806.356 145.165 805.566 145.724C804.81 146.25 804.053 146.513 803.296 146.513C802.704 146.513 802.194 146.365 801.767 146.069C801.339 145.74 800.977 145.345 800.681 144.885L799.102 142.072ZM858.27 172.961C859.882 175.132 861.642 176.661 863.55 177.549C865.458 178.438 867.596 178.882 869.964 178.882C874.635 178.882 878.221 177.22 880.721 173.898C883.221 170.576 884.471 165.839 884.471 159.688C884.471 156.431 884.175 153.635 883.583 151.299C883.024 148.964 882.201 147.056 881.116 145.576C880.03 144.063 878.698 142.961 877.119 142.27C875.54 141.579 873.747 141.234 871.741 141.234C868.879 141.234 866.362 141.892 864.191 143.207C862.053 144.523 860.08 146.382 858.27 148.783V172.961ZM857.826 142.763C859.931 140.165 862.366 138.076 865.129 136.497C867.892 134.918 871.05 134.128 874.602 134.128C877.497 134.128 880.112 134.688 882.448 135.806C884.783 136.892 886.774 138.52 888.418 140.691C890.063 142.829 891.329 145.494 892.218 148.684C893.106 151.875 893.55 155.543 893.55 159.688C893.55 163.372 893.056 166.809 892.07 170C891.083 173.158 889.652 175.905 887.777 178.24C885.935 180.543 883.665 182.368 880.968 183.717C878.303 185.033 875.293 185.691 871.938 185.691C868.879 185.691 866.247 185.181 864.043 184.161C861.872 183.109 859.948 181.661 858.27 179.819V201.924H849.438V135.017H854.718C855.968 135.017 856.741 135.625 857.037 136.842L857.826 142.763ZM946.303 135.017V185H937.471V161.612H913.491V185H904.659V135.017H913.491V154.951H937.471V135.017H946.303ZM987.354 162.5C983.308 162.632 979.854 162.961 976.992 163.487C974.163 163.98 971.844 164.638 970.035 165.461C968.258 166.283 966.959 167.253 966.137 168.372C965.347 169.49 964.952 170.74 964.952 172.122C964.952 173.438 965.166 174.572 965.594 175.526C966.021 176.48 966.597 177.27 967.321 177.895C968.077 178.487 968.949 178.931 969.936 179.227C970.956 179.49 972.041 179.622 973.192 179.622C974.738 179.622 976.153 179.474 977.436 179.178C978.719 178.849 979.919 178.388 981.038 177.796C982.189 177.204 983.275 176.497 984.294 175.674C985.347 174.852 986.367 173.915 987.354 172.862V162.5ZM958.982 142.072C961.745 139.408 964.722 137.418 967.913 136.102C971.104 134.786 974.64 134.128 978.521 134.128C981.317 134.128 983.801 134.589 985.972 135.51C988.143 136.431 989.969 137.714 991.449 139.359C992.929 141.003 994.048 142.994 994.804 145.329C995.561 147.665 995.939 150.23 995.939 153.026V185H992.041C991.186 185 990.528 184.868 990.067 184.605C989.607 184.309 989.245 183.75 988.982 182.928L987.995 178.191C986.679 179.408 985.396 180.493 984.146 181.447C982.896 182.368 981.581 183.158 980.199 183.816C978.817 184.441 977.337 184.918 975.758 185.247C974.212 185.609 972.485 185.789 970.577 185.789C968.636 185.789 966.811 185.526 965.1 185C963.39 184.441 961.893 183.618 960.61 182.533C959.36 181.447 958.357 180.082 957.6 178.438C956.877 176.76 956.515 174.786 956.515 172.516C956.515 170.543 957.058 168.651 958.143 166.842C959.229 165 960.988 163.372 963.423 161.957C965.857 160.543 969.031 159.392 972.946 158.503C976.86 157.582 981.663 157.056 987.354 156.924V153.026C987.354 149.145 986.515 146.217 984.837 144.244C983.159 142.237 980.709 141.234 977.485 141.234C975.314 141.234 973.488 141.513 972.008 142.072C970.561 142.599 969.294 143.207 968.209 143.898C967.156 144.556 966.235 145.165 965.446 145.724C964.689 146.25 963.933 146.513 963.176 146.513C962.584 146.513 962.074 146.365 961.646 146.069C961.219 145.74 960.857 145.345 960.561 144.885L958.982 142.072ZM1035.62 158.355V140.938H1027.23C1025.35 140.938 1023.77 141.217 1022.49 141.776C1021.21 142.303 1020.17 142.994 1019.38 143.849C1018.63 144.671 1018.08 145.609 1017.76 146.661C1017.43 147.681 1017.26 148.701 1017.26 149.72C1017.26 152.418 1018.25 154.54 1020.22 156.086C1022.2 157.599 1024.89 158.355 1028.31 158.355H1035.62ZM1044.01 135.017V185H1035.62V163.931H1031.77C1030.85 163.931 1030.07 164.013 1029.45 164.178C1028.86 164.309 1028.33 164.507 1027.87 164.77C1027.44 165.033 1027.06 165.378 1026.74 165.806C1026.41 166.201 1026.06 166.661 1025.7 167.188L1014.75 181.941C1014.19 182.993 1013.5 183.766 1012.67 184.26C1011.88 184.753 1010.72 185 1009.17 185H1003.05L1017.56 166.151C1018.74 164.178 1020.3 162.862 1022.25 162.204C1019.71 161.875 1017.57 161.283 1015.83 160.428C1014.09 159.572 1012.66 158.569 1011.54 157.418C1010.45 156.234 1009.66 154.934 1009.17 153.52C1008.68 152.105 1008.43 150.674 1008.43 149.227C1008.43 147.517 1008.76 145.806 1009.42 144.095C1010.11 142.385 1011.19 140.872 1012.67 139.556C1014.15 138.207 1016.06 137.122 1018.4 136.299C1020.77 135.444 1023.63 135.017 1026.98 135.017H1044.01ZM657.664 233.869V284H649.72V250.793C649.72 249.872 649.77 248.852 649.868 247.734C650 246.582 650.164 245.513 650.362 244.526L632.993 274.97C632.73 275.464 632.385 275.859 631.957 276.155C631.53 276.451 631.036 276.599 630.477 276.599H629.49C628.931 276.599 628.421 276.451 627.96 276.155C627.533 275.859 627.187 275.464 626.924 274.97L609.26 244.428C609.424 245.415 609.572 246.5 609.704 247.684C609.835 248.836 609.901 249.872 609.901 250.793V284H601.957V233.869H609.013C609.638 233.869 610.247 234.017 610.839 234.313C611.431 234.576 611.941 235.086 612.368 235.842L627.96 261.895C628.717 263.408 629.391 265.003 629.983 266.681C630.543 264.938 631.201 263.342 631.957 261.895L647.253 235.842C647.681 235.053 648.191 234.526 648.783 234.263C649.375 234 649.983 233.869 650.608 233.869H657.664ZM698.626 261.5C694.58 261.632 691.126 261.961 688.264 262.487C685.435 262.98 683.116 263.638 681.307 264.461C679.531 265.283 678.231 266.253 677.409 267.372C676.619 268.49 676.225 269.74 676.225 271.122C676.225 272.438 676.438 273.572 676.866 274.526C677.294 275.48 677.869 276.27 678.593 276.895C679.35 277.487 680.221 277.931 681.208 278.227C682.228 278.49 683.313 278.622 684.465 278.622C686.011 278.622 687.425 278.474 688.708 278.178C689.991 277.849 691.192 277.388 692.31 276.796C693.461 276.204 694.547 275.497 695.567 274.674C696.619 273.852 697.639 272.915 698.626 271.862V261.5ZM670.254 241.072C673.017 238.408 675.994 236.418 679.185 235.102C682.376 233.786 685.912 233.128 689.794 233.128C692.59 233.128 695.073 233.589 697.244 234.51C699.415 235.431 701.241 236.714 702.721 238.359C704.202 240.003 705.32 241.994 706.077 244.329C706.833 246.665 707.211 249.23 707.211 252.026V284H703.313C702.458 284 701.8 283.868 701.34 283.605C700.879 283.309 700.517 282.75 700.254 281.928L699.267 277.191C697.952 278.408 696.669 279.493 695.419 280.447C694.169 281.368 692.853 282.158 691.471 282.816C690.09 283.441 688.609 283.918 687.031 284.247C685.484 284.609 683.757 284.789 681.85 284.789C679.909 284.789 678.083 284.526 676.373 284C674.662 283.441 673.165 282.618 671.883 281.533C670.633 280.447 669.629 279.082 668.873 277.438C668.149 275.76 667.787 273.786 667.787 271.516C667.787 269.543 668.33 267.651 669.415 265.842C670.501 264 672.261 262.372 674.695 260.957C677.129 259.543 680.304 258.392 684.218 257.503C688.132 256.582 692.935 256.056 698.626 255.924V252.026C698.626 248.145 697.787 245.217 696.109 243.244C694.432 241.237 691.981 240.234 688.757 240.234C686.586 240.234 684.761 240.513 683.281 241.072C681.833 241.599 680.567 242.207 679.481 242.898C678.429 243.556 677.508 244.165 676.718 244.724C675.961 245.25 675.205 245.513 674.448 245.513C673.856 245.513 673.346 245.365 672.919 245.069C672.491 244.74 672.129 244.345 671.833 243.885L670.254 241.072ZM755.376 242.898C755.113 243.26 754.85 243.54 754.587 243.737C754.323 243.934 753.962 244.033 753.501 244.033C753.008 244.033 752.465 243.836 751.873 243.441C751.281 243.013 750.541 242.553 749.652 242.059C748.797 241.566 747.728 241.122 746.445 240.727C745.195 240.299 743.649 240.086 741.807 240.086C739.34 240.086 737.169 240.53 735.294 241.418C733.419 242.273 731.84 243.523 730.557 245.168C729.307 246.813 728.353 248.803 727.695 251.138C727.07 253.474 726.758 256.089 726.758 258.984C726.758 262.01 727.103 264.707 727.794 267.076C728.485 269.411 729.455 271.385 730.705 272.997C731.988 274.576 733.518 275.793 735.294 276.648C737.103 277.47 739.126 277.882 741.363 277.882C743.501 277.882 745.261 277.635 746.643 277.141C748.024 276.615 749.159 276.039 750.047 275.414C750.968 274.789 751.725 274.23 752.317 273.737C752.942 273.211 753.55 272.947 754.143 272.947C754.866 272.947 755.425 273.227 755.82 273.786L758.287 276.993C757.202 278.342 755.968 279.493 754.587 280.447C753.205 281.401 751.708 282.207 750.096 282.865C748.518 283.49 746.856 283.951 745.113 284.247C743.37 284.543 741.593 284.691 739.784 284.691C736.659 284.691 733.748 284.115 731.05 282.964C728.386 281.813 726.067 280.151 724.093 277.98C722.12 275.776 720.574 273.079 719.455 269.888C718.337 266.697 717.777 263.063 717.777 258.984C717.777 255.267 718.287 251.829 719.307 248.671C720.36 245.513 721.873 242.799 723.847 240.53C725.853 238.227 728.304 236.434 731.199 235.151C734.126 233.869 737.481 233.227 741.264 233.227C744.784 233.227 747.876 233.803 750.541 234.954C753.238 236.072 755.623 237.668 757.695 239.74L755.376 242.898ZM809.261 240.727H790.067V284H781.284V240.727H762.09V234.017H809.261V240.727ZM849.066 253.556C849.066 251.517 848.77 249.658 848.178 247.98C847.618 246.27 846.78 244.806 845.661 243.589C844.576 242.339 843.243 241.385 841.664 240.727C840.085 240.036 838.293 239.691 836.286 239.691C832.076 239.691 828.737 240.924 826.27 243.392C823.836 245.826 822.322 249.214 821.73 253.556H849.066ZM856.171 276.993C855.085 278.309 853.786 279.461 852.273 280.447C850.76 281.401 849.132 282.191 847.388 282.816C845.678 283.441 843.901 283.901 842.059 284.197C840.217 284.526 838.391 284.691 836.582 284.691C833.128 284.691 829.937 284.115 827.01 282.964C824.115 281.78 821.599 280.069 819.461 277.832C817.355 275.563 815.711 272.766 814.526 269.444C813.342 266.122 812.75 262.306 812.75 257.997C812.75 254.51 813.276 251.253 814.329 248.227C815.414 245.201 816.961 242.586 818.967 240.382C820.974 238.145 823.424 236.401 826.319 235.151C829.214 233.869 832.47 233.227 836.089 233.227C839.082 233.227 841.845 233.737 844.378 234.757C846.944 235.744 849.148 237.191 850.99 239.099C852.865 240.974 854.329 243.309 855.381 246.105C856.434 248.869 856.96 252.026 856.96 255.579C856.96 256.961 856.812 257.882 856.516 258.342C856.22 258.803 855.661 259.033 854.839 259.033H821.434C821.533 262.191 821.961 264.938 822.717 267.273C823.507 269.609 824.592 271.566 825.974 273.145C827.355 274.691 829 275.859 830.908 276.648C832.816 277.405 834.954 277.783 837.322 277.783C839.526 277.783 841.418 277.536 842.997 277.043C844.608 276.516 845.99 275.957 847.141 275.365C848.293 274.773 849.247 274.23 850.003 273.737C850.793 273.211 851.467 272.947 852.026 272.947C852.75 272.947 853.309 273.227 853.704 273.786L856.171 276.993ZM876.581 271.961C878.193 274.132 879.953 275.661 881.86 276.549C883.768 277.438 885.906 277.882 888.275 277.882C892.946 277.882 896.531 276.22 899.031 272.898C901.531 269.576 902.781 264.839 902.781 258.688C902.781 255.431 902.485 252.635 901.893 250.299C901.334 247.964 900.512 246.056 899.426 244.576C898.341 243.063 897.008 241.961 895.429 241.27C893.851 240.579 892.058 240.234 890.051 240.234C887.189 240.234 884.673 240.892 882.502 242.207C880.364 243.523 878.39 245.382 876.581 247.783V271.961ZM876.137 241.763C878.242 239.165 880.676 237.076 883.439 235.497C886.203 233.918 889.36 233.128 892.913 233.128C895.808 233.128 898.423 233.688 900.758 234.806C903.094 235.892 905.084 237.52 906.729 239.691C908.374 241.829 909.64 244.494 910.528 247.684C911.416 250.875 911.86 254.543 911.86 258.688C911.86 262.372 911.367 265.809 910.38 269C909.393 272.158 907.962 274.905 906.087 277.24C904.245 279.543 901.975 281.368 899.278 282.717C896.614 284.033 893.604 284.691 890.249 284.691C887.189 284.691 884.558 284.181 882.354 283.161C880.183 282.109 878.258 280.661 876.581 278.819V300.924H867.749V234.017H873.028C874.278 234.017 875.051 234.625 875.347 235.842L876.137 241.763ZM957.755 242.898C957.492 243.26 957.229 243.54 956.966 243.737C956.703 243.934 956.341 244.033 955.88 244.033C955.387 244.033 954.844 243.836 954.252 243.441C953.66 243.013 952.92 242.553 952.032 242.059C951.176 241.566 950.107 241.122 948.824 240.727C947.574 240.299 946.028 240.086 944.186 240.086C941.719 240.086 939.548 240.53 937.673 241.418C935.798 242.273 934.219 243.523 932.936 245.168C931.686 246.813 930.732 248.803 930.074 251.138C929.449 253.474 929.137 256.089 929.137 258.984C929.137 262.01 929.482 264.707 930.173 267.076C930.864 269.411 931.834 271.385 933.084 272.997C934.367 274.576 935.897 275.793 937.673 276.648C939.482 277.47 941.505 277.882 943.742 277.882C945.88 277.882 947.64 277.635 949.022 277.141C950.403 276.615 951.538 276.039 952.426 275.414C953.347 274.789 954.104 274.23 954.696 273.737C955.321 273.211 955.93 272.947 956.522 272.947C957.245 272.947 957.805 273.227 958.199 273.786L960.666 276.993C959.581 278.342 958.347 279.493 956.966 280.447C955.584 281.401 954.088 282.207 952.476 282.865C950.897 283.49 949.236 283.951 947.492 284.247C945.749 284.543 943.972 284.691 942.163 284.691C939.038 284.691 936.127 284.115 933.43 282.964C930.765 281.813 928.446 280.151 926.472 277.98C924.499 275.776 922.953 273.079 921.834 269.888C920.716 266.697 920.157 263.063 920.157 258.984C920.157 255.267 920.667 251.829 921.686 248.671C922.739 245.513 924.252 242.799 926.226 240.53C928.232 238.227 930.683 236.434 933.578 235.151C936.505 233.869 939.861 233.227 943.644 233.227C947.163 233.227 950.255 233.803 952.92 234.954C955.617 236.072 958.002 237.668 960.074 239.74L957.755 242.898ZM1000.44 236.484C1000.9 235.76 1001.51 235.168 1002.27 234.707C1003.02 234.247 1003.83 234.017 1004.68 234.017H1011.54L998.565 253.063C997.776 254.28 996.953 255.283 996.098 256.072C995.243 256.829 994.19 257.421 992.94 257.849C994.519 258.276 995.851 258.951 996.937 259.872C998.022 260.76 998.993 261.911 999.848 263.326L1012.97 284H1006.85C1005.28 284 1004.06 283.737 1003.2 283.211C1002.35 282.684 1001.61 281.928 1000.98 280.941L991.262 265.398C989.716 262.832 987.397 261.549 984.305 261.549H978.927V284.049H970.095V234.017H978.927V255.628H983.664C986.295 255.628 988.351 254.51 989.831 252.273L1000.44 236.484ZM1047.47 257.355V239.938H1039.08C1037.21 239.938 1035.63 240.217 1034.35 240.776C1033.06 241.303 1032.03 241.994 1031.24 242.849C1030.48 243.671 1029.94 244.609 1029.61 245.661C1029.28 246.681 1029.12 247.701 1029.12 248.72C1029.12 251.418 1030.1 253.54 1032.08 255.086C1034.05 256.599 1036.75 257.355 1040.17 257.355H1047.47ZM1055.86 234.017V284H1047.47V262.931H1043.62C1042.7 262.931 1041.93 263.013 1041.3 263.178C1040.71 263.309 1040.18 263.507 1039.72 263.77C1039.3 264.033 1038.92 264.378 1038.59 264.806C1038.26 265.201 1037.91 265.661 1037.55 266.188L1026.6 280.941C1026.04 281.993 1025.35 282.766 1024.53 283.26C1023.74 283.753 1022.57 284 1021.02 284H1014.9L1029.41 265.151C1030.6 263.178 1032.16 261.862 1034.1 261.204C1031.57 260.875 1029.43 260.283 1027.68 259.428C1025.94 258.572 1024.51 257.569 1023.39 256.418C1022.31 255.234 1021.52 253.934 1021.02 252.52C1020.53 251.105 1020.28 249.674 1020.28 248.227C1020.28 246.517 1020.61 244.806 1021.27 243.095C1021.96 241.385 1023.05 239.872 1024.53 238.556C1026.01 237.207 1027.91 236.122 1030.25 235.299C1032.62 234.444 1035.48 234.017 1038.84 234.017H1055.86Z" fill="#78644F"/>
<path d="M433.72 201.759L411.686 205.558C398.58 241.458 402.189 255.134 407.317 260.263C413.965 266.531 425.742 261.783 425.932 261.783L427.262 261.213L428.212 266.721L427.262 267.101C413.016 271.85 402.568 271.66 395.73 266.341C388.892 260.833 388.132 252.095 388.132 248.106L382.244 250.766H381.864C349.383 240.508 331.717 287.426 331.527 287.996L331.337 288.376L318.801 294.644L325.639 254.375L331.148 252.665L333.997 265.772C339.505 252.285 348.053 245.447 351.472 243.168C335.136 230.631 337.606 218.664 337.606 218.094C341.215 203.658 358.88 195.68 389.652 194.541C412.446 193.591 434.29 196.82 434.48 196.82L436 197.2L433.72 201.759ZM388.512 238.989C389.082 235 391.551 218.474 397.44 206.887C383.384 207.457 352.422 210.686 348.623 219.804C347.673 222.083 348.623 224.743 351.472 227.782C351.662 227.782 365.148 241.458 388.512 238.989Z" fill="#78644F"/>
<path d="M319.095 218.474L324.223 213.725L314.346 232.151L314.156 232.341C313.966 232.53 297.63 243.738 276.926 253.425C256.221 263.302 238.746 268.241 224.69 268.241C219.941 268.241 215.572 267.671 211.773 266.531C211.393 266.341 195.248 259.693 199.047 242.028L193.918 236.899V232.151L202.466 228.732C205.315 223.603 234.757 172.127 289.273 182.004C296.871 183.334 300.29 187.133 301.999 190.172C303.709 193.401 303.709 197.2 302.379 200.429C294.401 217.524 269.898 224.173 260.59 226.072L263.629 227.402L277.116 225.882L277.496 232.151L212.153 242.408C212.343 244.497 213.103 249.246 217.472 252.475C224.31 257.794 236.847 257.604 253.942 252.095C297.63 238.229 318.905 218.664 319.095 218.474ZM251.853 195.3C232.288 202.518 223.74 219.804 221.271 225.312C264.009 220.754 279.015 209.167 286.613 200.619C288.703 198.15 289.273 196.25 288.133 194.541C284.904 189.792 268.568 189.032 251.853 195.3Z" fill="#78644F"/>
<path d="M200.132 151.612C202.221 161.679 200.891 171.747 198.232 181.434C193.673 198.72 186.645 217.145 173.539 229.871C167.46 235.76 159.482 239.939 150.935 239.369C141.437 238.609 134.789 231.771 130.8 223.603C130.23 222.463 127.761 217.145 130.61 216.955C131.75 216.955 133.459 218.854 134.029 219.424C134.789 220.374 135.359 221.324 135.929 222.273C136.498 222.653 137.068 223.033 137.638 223.223C139.158 224.173 140.867 224.553 142.577 224.743C146.756 225.502 150.555 224.743 154.354 223.223C162.142 219.994 168.41 213.346 172.969 206.507C177.528 199.859 180.947 192.451 183.796 185.043C186.645 177.255 189.304 169.277 190.824 161.11C191.774 156.741 191.964 151.992 191.584 147.433C191.394 145.724 191.204 144.014 190.824 142.495C190.634 141.735 190.444 141.165 190.064 140.595C190.064 140.405 190.064 140.405 190.064 140.405C190.064 140.215 189.874 140.025 189.874 139.835H189.684C189.494 139.455 189.494 139.265 189.304 139.075C189.114 138.696 188.735 138.126 188.735 138.316C187.975 137.176 187.215 136.416 186.265 135.656C183.986 133.567 181.327 131.857 178.477 130.528C163.091 124.069 146.756 133.377 134.599 142.305C131.94 144.014 129.47 146.104 126.811 148.003C126.621 153.132 125.861 158.07 124.912 162.819C124.722 172.317 124.152 181.814 123.012 191.312C120.733 211.256 116.554 231.581 109.336 250.386C103.447 265.582 94.1397 280.018 78.7538 287.046C74.5749 288.946 66.0272 275.269 68.6865 274.129C72.2955 272.61 75.5247 270.71 78.5638 268.241C90.1508 259.123 96.799 245.067 101.168 231.201C104.397 221.134 107.056 210.876 108.956 200.619C99.4583 216.385 87.3015 231.581 72.2955 242.218C57.8594 252.665 36.585 261.023 20.2494 249.816C2.96396 238.039 -3.30437 216.195 1.63432 196.44C6.1931 178.585 17.4001 161.869 29.3669 148.383C40.574 135.656 54.4403 124.829 70.396 119.131C78.184 116.471 86.7317 114.572 95.0895 114.952C103.257 115.332 110.285 118.561 115.604 124.259C115.604 123.689 115.604 123.12 115.414 122.55C115.034 119.131 119.023 121.6 120.163 122.74C122.062 124.259 123.962 126.539 125.291 128.818C129.66 125.589 134.219 122.74 138.968 120.27C147.136 116.092 156.253 112.862 165.561 114.382C173.729 115.902 180.947 120.65 186.645 126.729C193.103 133.567 198.042 142.495 200.132 151.612ZM112.565 139.075C112.945 138.506 113.325 138.126 113.894 137.746C113.894 135.466 113.704 133.377 113.325 131.098C113.325 130.718 113.135 130.528 112.945 130.148C112.185 129.958 111.425 129.578 111.045 129.578C104.017 127.109 95.8493 128.248 88.6312 129.768C81.0332 131.477 73.8151 134.327 67.1669 138.126C53.6805 145.914 42.2835 156.931 32.786 169.277C22.5288 182.764 12.8413 198.91 10.9418 216.195C10.5619 220.754 10.7519 225.123 11.7016 229.491C12.0815 231.201 12.4614 232.91 13.2212 234.62C13.6011 235.57 14.171 236.519 14.5509 236.899C14.3609 236.709 15.3107 237.659 14.9308 237.469C15.1207 237.659 15.3107 237.659 15.3107 237.849C15.5006 238.039 16.0705 238.229 16.0705 238.419C17.5901 239.369 19.2996 240.129 21.0092 240.698C24.9981 242.028 29.5569 242.028 33.7358 241.648C50.6413 239.559 65.6473 228.352 77.0443 216.385C91.6704 201.189 104.777 182.004 111.425 161.299C106.107 166.238 101.168 171.177 96.2291 176.495C94.5196 178.395 84.8322 165.668 88.0613 162.249C95.6593 154.081 103.827 146.293 112.565 139.075Z" fill="#78644F"/>
</svg>
